<?xml version="1.0" encoding="utf-8"?>
<!-- Generator: Adobe Illustrator 23.0.3, SVG Export Plug-In . SVG Version: 6.00 Build 0)  -->
<svg version="1.1" id="Capa_1" xmlns="http://www.w3.org/2000/svg" xmlns:xlink="http://www.w3.org/1999/xlink" x="0px" y="0px"
	 viewBox="0 0 17.7 17.7" style="enable-background:new 0 0 17.7 17.7;" xml:space="preserve">
<style type="text/css">
	.st0{fill:#FFFFFF;}
</style>
<title>logo</title>
<path class="st0" d="M10.5,12.6c0-0.9,0-1.9,0-2.8c0-0.3-0.1-0.4-0.4-0.4c-0.8,0-1.6,0-2.5,0c-0.3,0-0.4,0.1-0.4,0.4
	c0,1.8,0,3.7,0,5.5c0,0.3,0.1,0.4,0.4,0.4c0.8,0,1.6,0,2.5,0c0.3,0,0.4-0.1,0.4-0.4C10.5,14.4,10.5,13.5,10.5,12.6z M9.3,15
	C8,15,8,15,8,13.7c0-1,0-2,0-3c0-0.3,0.1-0.5,0.4-0.5c1.3,0,1.3,0,1.3,1.3v1.2c0,0.6,0,1.3,0,1.9C9.8,14.9,9.6,15,9.3,15z"/>
<path class="st0" d="M15.7,4.2c0,0.2,0,0.3-0.2,0.3c-0.2,0-0.4,0.1-0.5-0.2c-0.5-1.5-1.7-2-3.1-1.1c-0.6,0.4-1.2,0.9-1.8,1.2
	C8.6,5.2,6.8,4.5,6.3,2.9C6.3,2.7,6,2.4,6.4,2.3c0.3-0.1,0.5,0,0.6,0.4c0.3,1.2,1.6,1.7,2.7,1.1c0.6-0.4,1.2-0.8,1.8-1.2
	c0.8-0.6,1.7-0.7,2.6-0.4C15,2.4,15.7,3.3,15.7,4.2z"/>
<path class="st0" d="M12.5,9.6c2.4,0,3.9,2.2,2.9,4.3c-0.6,1.2-2.1,2-3.5,1.7c-0.2,0-0.3-0.2-0.3-0.3c0-0.2,0.1-0.4,0.3-0.4
	c0.4,0,0.7,0,1.1-0.1c1.2-0.2,2-1.1,2-2.2c0-1.1-0.9-2.1-2-2.2c-0.3,0-0.6,0-1,0c-0.3,0-0.4-0.1-0.3-0.4c0-0.2,0.1-0.3,0.3-0.3
	C12.2,9.6,12.3,9.6,12.5,9.6z"/>
<path class="st0" d="M13.3,4.8c-1,0-1.8,0.8-1.8,1.8c0,1,0.8,1.9,1.9,1.9c1,0,1.8-0.8,1.8-1.8C15.1,5.7,14.3,4.9,13.3,4.8
	C13.3,4.8,13.3,4.8,13.3,4.8z M13.3,7.8c-0.6,0-1.1-0.5-1.1-1.1c0-0.6,0.5-1.1,1.1-1.1c0.6,0,1.1,0.5,1.1,1.1c0,0,0,0,0,0
	C14.4,7.3,13.9,7.8,13.3,7.8C13.3,7.8,13.3,7.8,13.3,7.8z"/>
<path class="st0" d="M4.4,11.5c-1,0-1.9,0.8-1.9,1.8c0,1,0.8,1.9,1.8,1.9c1,0,1.9-0.8,1.9-1.8C6.3,12.3,5.5,11.5,4.4,11.5
	C4.4,11.5,4.4,11.5,4.4,11.5z M4.4,14.4c-0.6,0-1.1-0.5-1.1-1.1c0-0.6,0.5-1.1,1.1-1.1c0.6,0,1.1,0.5,1.1,1.1
	C5.5,13.9,5,14.4,4.4,14.4L4.4,14.4z"/>
<path class="st0" d="M10.2,8.4C10.1,8.3,10,8.3,9.9,8.2C9.1,7.5,8.3,6.8,7.4,6.1c-0.2-0.2-0.2-0.3,0-0.5s0.3-0.2,0.5-0.1l2.6,2.3
	c0.1,0.1,0.2,0.2,0.1,0.3C10.5,8.2,10.4,8.4,10.2,8.4z"/>
<path class="st0" d="M5.6,9.4c-0.4,0-0.7,0-1.1-0.1l0,0C4,9.2,3.6,9,3.2,8.6C2.7,7.9,2.5,7.1,2.8,6.3S3.8,5,4.6,4.9
	c0.3,0,0.5,0,0.5-0.4c0-0.6,0-1.3,0-1.9c0-0.2-0.1-0.4-0.3-0.4S4.4,2.3,4.4,2.6c0,0.3,0,0.7,0,1c0,0.4-0.1,0.6-0.5,0.8
	C2.6,4.8,1.8,6.2,2,7.5C2.2,8.9,3.3,10,4.7,10c0.3,0.1,0.6,0.1,1,0.1C5.9,10.1,6,10,6,9.8C6,9.5,5.9,9.4,5.6,9.4z"/>
<path class="st0" d="M17.7,17.7H0V0h17.7V17.7z M0.7,17H17V0.7H0.7V17z"/>
</svg>
